# xmcd
#
# Track frame offsets:
#	150
#	12113
#	30224
#	47793
#	62778
#	79804
#	93419
#	110425
#	123050
#	138551
#	151920
#	165353
#
# Disc length: 2422 seconds
#
# Revision: 1
# Processed by: cddbd v1.4PL0 Copyright (c) Steve Scherf et al.
# Submitted via: audiograbber 1.80
#
DISCID=8709740c
DTITLE=Lolene - Lonely Dealin's
DYEAR=1900
DGENRE=
TTITLE0=Slow Burn
TTITLE1=You Say the Word
TTITLE2=I Don't Mind the Rain
TTITLE3=You Never Come
TTITLE4=What Am I Gonno Do
TTITLE5=The Man I Love
TTITLE6=Don't Wake Me Up
TTITLE7=Me Without You
TTITLE8=With Someone
TTITLE9=I Don't Know Where You're Comin' From
TTITLE10=The Deal's Gone Down
TTITLE11=I WIll
EXTD=
EXTT0=
EXTT1=
EXTT2=
EXTT3=
EXTT4=
EXTT5=
EXTT6=
EXTT7=
EXTT8=
EXTT9=
EXTT10=
EXTT11=
PLAYORDER=
